<?xml version="1.0" encoding="UTF-8"?>
<svg xmlns="http://www.w3.org/2000/svg" viewBox="0 0 1040 870" width="1040" height="870">
  <rect width="1040" height="870" fill="#1a1a2e"/>
  <defs>
    <pattern id="dots" x="0" y="0" width="20" height="20" patternUnits="userSpaceOnUse">
      <circle cx="1" cy="1" r="1" fill="rgba(255,255,255,0.06)"/>
    </pattern>
  </defs>
  <rect width="100%" height="100%" fill="url(#dots)"/>
  <text x="520" y="18" text-anchor="middle" font-size="14" font-weight="bold" fill="white" font-family="Arial,sans-serif" opacity="0.85">Cappi — Diagrama ER  ·  PostgreSQL + Prisma</text>
  <rect x="15" y="205" width="240" height="580" rx="14" fill="#eaf2ff" stroke="#aed6f1" stroke-width="1.5" opacity="0.6"/>
  <text x="25" y="221" font-size="9" fill="#aed6f1" font-weight="bold" font-family="Arial,sans-serif" letter-spacing="1">AUTH</text>
  <rect x="265" y="205" width="240" height="590" rx="14" fill="#eafaf1" stroke="#a9dfbf" stroke-width="1.5" opacity="0.6"/>
  <text x="275" y="221" font-size="9" fill="#a9dfbf" font-weight="bold" font-family="Arial,sans-serif" letter-spacing="1">TRAINING</text>
  <rect x="515" y="205" width="240" height="370" rx="14" fill="#e8f8f5" stroke="#a2d9ce" stroke-width="1.5" opacity="0.6"/>
  <text x="525" y="221" font-size="9" fill="#a2d9ce" font-weight="bold" font-family="Arial,sans-serif" letter-spacing="1">CONTENT / RAG</text>
  <rect x="775" y="205" width="240" height="300" rx="14" fill="#eaf0fb" stroke="#a9b8df" stroke-width="1.5" opacity="0.6"/>
  <text x="785" y="221" font-size="9" fill="#a9b8df" font-weight="bold" font-family="Arial,sans-serif" letter-spacing="1">AI / CHAT</text>
  <path d="M 395 93 C 335 93, 300 305, 240 305" fill="none" stroke="#d35400" stroke-width="2" opacity="0.65"/>
  <line x1="395" y1="86" x2="395" y2="100" stroke="#d35400" stroke-width="1.8"/>
  <line x1="248" y1="297" x2="240" y2="305" stroke="#d35400" stroke-width="1.8"/>
  <line x1="248" y1="305" x2="240" y2="305" stroke="#d35400" stroke-width="1.8"/>
  <line x1="248" y1="313" x2="240" y2="305" stroke="#d35400" stroke-width="1.8"/>
  <path d="M 500 156 C 500 216, 385 160, 385 220" fill="none" stroke="#d35400" stroke-width="2" opacity="0.65"/>
  <line x1="493" y1="156" x2="507" y2="156" stroke="#d35400" stroke-width="1.8"/>
  <line x1="377" y1="212" x2="385" y2="220" stroke="#d35400" stroke-width="1.8"/>
  <line x1="385" y1="212" x2="385" y2="220" stroke="#d35400" stroke-width="1.8"/>
  <line x1="393" y1="212" x2="385" y2="220" stroke="#d35400" stroke-width="1.8"/>
  <path d="M 500 156 C 500 216, 635 160, 635 220" fill="none" stroke="#d35400" stroke-width="2" opacity="0.65"/>
  <line x1="493" y1="156" x2="507" y2="156" stroke="#d35400" stroke-width="1.8"/>
  <line x1="627" y1="212" x2="635" y2="220" stroke="#d35400" stroke-width="1.8"/>
  <line x1="635" y1="212" x2="635" y2="220" stroke="#d35400" stroke-width="1.8"/>
  <line x1="643" y1="212" x2="635" y2="220" stroke="#d35400" stroke-width="1.8"/>
  <path d="M 605 93 C 665 93, 730 283, 790 283" fill="none" stroke="#d35400" stroke-width="2" opacity="0.65"/>
  <line x1="605" y1="86" x2="605" y2="100" stroke="#d35400" stroke-width="1.8"/>
  <line x1="782" y1="275" x2="790" y2="283" stroke="#d35400" stroke-width="1.8"/>
  <line x1="782" y1="283" x2="790" y2="283" stroke="#d35400" stroke-width="1.8"/>
  <line x1="782" y1="291" x2="790" y2="283" stroke="#d35400" stroke-width="1.8"/>
  <path d="M 135 390 C 135 450, 135 360, 135 420" fill="none" stroke="#1f618d" stroke-width="2" opacity="0.65"/>
  <line x1="128" y1="390" x2="142" y2="390" stroke="#1f618d" stroke-width="1.8"/>
  <line x1="127" y1="412" x2="135" y2="420" stroke="#1f618d" stroke-width="1.8"/>
  <line x1="135" y1="412" x2="135" y2="420" stroke="#1f618d" stroke-width="1.8"/>
  <line x1="143" y1="412" x2="135" y2="420" stroke="#1f618d" stroke-width="1.8"/>
  <path d="M 135 390 C 135 450, 135 560, 135 620" fill="none" stroke="#1f618d" stroke-width="2" opacity="0.65"/>
  <line x1="128" y1="390" x2="142" y2="390" stroke="#1f618d" stroke-width="1.8"/>
  <line x1="127" y1="612" x2="135" y2="620" stroke="#1f618d" stroke-width="1.8"/>
  <line x1="135" y1="612" x2="135" y2="620" stroke="#1f618d" stroke-width="1.8"/>
  <line x1="143" y1="612" x2="135" y2="620" stroke="#1f618d" stroke-width="1.8"/>
  <path d="M 240 305 C 300 305, 730 283, 790 283" fill="none" stroke="#1f618d" stroke-width="2" opacity="0.65"/>
  <line x1="240" y1="298" x2="240" y2="312" stroke="#1f618d" stroke-width="1.8"/>
  <line x1="782" y1="275" x2="790" y2="283" stroke="#1f618d" stroke-width="1.8"/>
  <line x1="782" y1="283" x2="790" y2="283" stroke="#1f618d" stroke-width="1.8"/>
  <line x1="782" y1="291" x2="790" y2="283" stroke="#1f618d" stroke-width="1.8"/>
  <path d="M 385 390 C 385 450, 385 360, 385 420" fill="none" stroke="#1e8449" stroke-width="2" opacity="0.65"/>
  <line x1="378" y1="390" x2="392" y2="390" stroke="#1e8449" stroke-width="1.8"/>
  <line x1="377" y1="412" x2="385" y2="420" stroke="#1e8449" stroke-width="1.8"/>
  <line x1="385" y1="412" x2="385" y2="420" stroke="#1e8449" stroke-width="1.8"/>
  <line x1="393" y1="412" x2="385" y2="420" stroke="#1e8449" stroke-width="1.8"/>
  <path d="M 385 390 C 385 450, 385 560, 385 620" fill="none" stroke="#1e8449" stroke-width="2" opacity="0.65"/>
  <line x1="378" y1="390" x2="392" y2="390" stroke="#1e8449" stroke-width="1.8"/>
  <line x1="377" y1="612" x2="385" y2="620" stroke="#1e8449" stroke-width="1.8"/>
  <line x1="385" y1="612" x2="385" y2="620" stroke="#1e8449" stroke-width="1.8"/>
  <line x1="393" y1="612" x2="385" y2="620" stroke="#1e8449" stroke-width="1.8"/>
  <path d="M 280 305 C 220 305, 300 505, 240 505" fill="none" stroke="#1e8449" stroke-width="2" opacity="0.65"/>
  <line x1="280" y1="298" x2="280" y2="312" stroke="#1e8449" stroke-width="1.8"/>
  <line x1="248" y1="497" x2="240" y2="505" stroke="#1e8449" stroke-width="1.8"/>
  <line x1="248" y1="505" x2="240" y2="505" stroke="#1e8449" stroke-width="1.8"/>
  <line x1="248" y1="513" x2="240" y2="505" stroke="#1e8449" stroke-width="1.8"/>
  <path d="M 490 305 C 550 305, 470 316, 530 316" fill="none" stroke="#1e8449" stroke-width="2" opacity="0.65"/>
  <line x1="490" y1="298" x2="490" y2="312" stroke="#1e8449" stroke-width="1.8"/>
  <line x1="522" y1="308" x2="530" y2="316" stroke="#1e8449" stroke-width="1.8"/>
  <line x1="522" y1="316" x2="530" y2="316" stroke="#1e8449" stroke-width="1.8"/>
  <line x1="522" y1="324" x2="530" y2="316" stroke="#1e8449" stroke-width="1.8"/>
  <path d="M 490 494 C 550 494, 470 316, 530 316" fill="none" stroke="#1e8449" stroke-width="2" opacity="0.65"/>
  <line x1="490" y1="487" x2="490" y2="501" stroke="#1e8449" stroke-width="1.8"/>
  <line x1="522" y1="308" x2="530" y2="316" stroke="#1e8449" stroke-width="1.8"/>
  <line x1="522" y1="316" x2="530" y2="316" stroke="#1e8449" stroke-width="1.8"/>
  <line x1="522" y1="324" x2="530" y2="316" stroke="#1e8449" stroke-width="1.8"/>
  <path d="M 280 705 C 220 705, 300 694, 240 694" fill="none" stroke="#1e8449" stroke-width="2" opacity="0.65"/>
  <line x1="280" y1="698" x2="280" y2="712" stroke="#1e8449" stroke-width="1.8"/>
  <line x1="248" y1="686" x2="240" y2="694" stroke="#1e8449" stroke-width="1.8"/>
  <line x1="248" y1="694" x2="240" y2="694" stroke="#1e8449" stroke-width="1.8"/>
  <line x1="248" y1="702" x2="240" y2="694" stroke="#1e8449" stroke-width="1.8"/>
  <path d="M 635 412 C 635 472, 635 360, 635 420" fill="none" stroke="#117a65" stroke-width="2" opacity="0.65"/>
  <line x1="628" y1="412" x2="642" y2="412" stroke="#117a65" stroke-width="1.8"/>
  <line x1="627" y1="412" x2="635" y2="420" stroke="#117a65" stroke-width="1.8"/>
  <line x1="635" y1="412" x2="635" y2="420" stroke="#117a65" stroke-width="1.8"/>
  <line x1="643" y1="412" x2="635" y2="420" stroke="#117a65" stroke-width="1.8"/>
  <path d="M 895 346 C 895 406, 895 320, 895 380" fill="none" stroke="#1a5276" stroke-width="2" opacity="0.65"/>
  <line x1="888" y1="346" x2="902" y2="346" stroke="#1a5276" stroke-width="1.8"/>
  <line x1="887" y1="372" x2="895" y2="380" stroke="#1a5276" stroke-width="1.8"/>
  <line x1="895" y1="372" x2="895" y2="380" stroke="#1a5276" stroke-width="1.8"/>
  <line x1="903" y1="372" x2="895" y2="380" stroke="#1a5276" stroke-width="1.8"/>
  <rect x="400" y="35" width="210" height="126" rx="12" fill="rgba(0,0,0,0.1)"/>
  <rect x="395" y="30" width="210" height="126" rx="12" fill="white" stroke="#d3540022" stroke-width="1.5"/>
  <rect x="395" y="30" width="210" height="38" rx="12" fill="#d35400"/>
  <rect x="395" y="56" width="210" height="12" fill="#d35400"/>
  <text x="500" y="57" text-anchor="middle" fill="white" font-weight="bold" font-size="13" font-family="Arial,sans-serif">Organization</text>
  <line x1="396" y1="68" x2="604" y2="68" stroke="#e9ecef" stroke-width="1"/>
  <rect x="396" y="68" width="208" height="22" fill="#f8f9fa"/>
  <text x="405" y="84" font-size="11" fill="#c0392b" font-weight="bold" font-family="'Courier New',monospace">🔑 id</text>
  <line x1="396" y1="90" x2="604" y2="90" stroke="#e9ecef" stroke-width="0.5"/>
  <text x="405" y="106" font-size="11" fill="#495057" font-weight="normal" font-family="'Courier New',monospace">  name</text>
  <line x1="396" y1="112" x2="604" y2="112" stroke="#e9ecef" stroke-width="0.5"/>
  <rect x="396" y="112" width="208" height="22" fill="#f8f9fa"/>
  <text x="405" y="128" font-size="11" fill="#495057" font-weight="normal" font-family="'Courier New',monospace">  slug</text>
  <line x1="396" y1="134" x2="604" y2="134" stroke="#e9ecef" stroke-width="0.5"/>
  <text x="405" y="150" font-size="11" fill="#495057" font-weight="normal" font-family="'Courier New',monospace">  industry</text>
  <rect x="35" y="225" width="210" height="170" rx="12" fill="rgba(0,0,0,0.1)"/>
  <rect x="30" y="220" width="210" height="170" rx="12" fill="white" stroke="#1f618d22" stroke-width="1.5"/>
  <rect x="30" y="220" width="210" height="38" rx="12" fill="#1f618d"/>
  <rect x="30" y="246" width="210" height="12" fill="#1f618d"/>
  <text x="135" y="247" text-anchor="middle" fill="white" font-weight="bold" font-size="13" font-family="Arial,sans-serif">User</text>
  <line x1="31" y1="258" x2="239" y2="258" stroke="#e9ecef" stroke-width="1"/>
  <rect x="31" y="258" width="208" height="22" fill="#f8f9fa"/>
  <text x="40" y="274" font-size="11" fill="#c0392b" font-weight="bold" font-family="'Courier New',monospace">🔑 id</text>
  <line x1="31" y1="280" x2="239" y2="280" stroke="#e9ecef" stroke-width="0.5"/>
  <text x="40" y="296" font-size="11" fill="#495057" font-weight="normal" font-family="'Courier New',monospace">  email</text>
  <line x1="31" y1="302" x2="239" y2="302" stroke="#e9ecef" stroke-width="0.5"/>
  <rect x="31" y="302" width="208" height="22" fill="#f8f9fa"/>
  <text x="40" y="318" font-size="11" fill="#495057" font-weight="normal" font-family="'Courier New',monospace">  name</text>
  <line x1="31" y1="324" x2="239" y2="324" stroke="#e9ecef" stroke-width="0.5"/>
  <text x="40" y="340" font-size="11" fill="#495057" font-weight="normal" font-family="'Courier New',monospace">  role: UserRole</text>
  <line x1="31" y1="346" x2="239" y2="346" stroke="#e9ecef" stroke-width="0.5"/>
  <rect x="31" y="346" width="208" height="22" fill="#f8f9fa"/>
  <text x="40" y="362" font-size="11" fill="#495057" font-weight="normal" font-family="'Courier New',monospace">  status: UserStatus</text>
  <line x1="31" y1="368" x2="239" y2="368" stroke="#e9ecef" stroke-width="0.5"/>
  <text x="40" y="384" font-size="11" fill="#1a5276" font-weight="normal" font-family="'Courier New',monospace">🔗 organizationId</text>
  <rect x="285" y="225" width="210" height="170" rx="12" fill="rgba(0,0,0,0.1)"/>
  <rect x="280" y="220" width="210" height="170" rx="12" fill="white" stroke="#1e844922" stroke-width="1.5"/>
  <rect x="280" y="220" width="210" height="38" rx="12" fill="#1e8449"/>
  <rect x="280" y="246" width="210" height="12" fill="#1e8449"/>
  <text x="385" y="247" text-anchor="middle" fill="white" font-weight="bold" font-size="13" font-family="Arial,sans-serif">TrainingModule</text>
  <line x1="281" y1="258" x2="489" y2="258" stroke="#e9ecef" stroke-width="1"/>
  <rect x="281" y="258" width="208" height="22" fill="#f8f9fa"/>
  <text x="290" y="274" font-size="11" fill="#c0392b" font-weight="bold" font-family="'Courier New',monospace">🔑 id</text>
  <line x1="281" y1="280" x2="489" y2="280" stroke="#e9ecef" stroke-width="0.5"/>
  <text x="290" y="296" font-size="11" fill="#1a5276" font-weight="normal" font-family="'Courier New',monospace">🔗 organizationId</text>
  <line x1="281" y1="302" x2="489" y2="302" stroke="#e9ecef" stroke-width="0.5"/>
  <rect x="281" y="302" width="208" height="22" fill="#f8f9fa"/>
  <text x="290" y="318" font-size="11" fill="#495057" font-weight="normal" font-family="'Courier New',monospace">  title</text>
  <line x1="281" y1="324" x2="489" y2="324" stroke="#e9ecef" stroke-width="0.5"/>
  <text x="290" y="340" font-size="11" fill="#495057" font-weight="normal" font-family="'Courier New',monospace">  status: ModuleStatus</text>
  <line x1="281" y1="346" x2="489" y2="346" stroke="#e9ecef" stroke-width="0.5"/>
  <rect x="281" y="346" width="208" height="22" fill="#f8f9fa"/>
  <text x="290" y="362" font-size="11" fill="#495057" font-weight="normal" font-family="'Courier New',monospace">  orderIndex: Int</text>
  <line x1="281" y1="368" x2="489" y2="368" stroke="#e9ecef" stroke-width="0.5"/>
  <text x="290" y="384" font-size="11" fill="#495057" font-weight="normal" font-family="'Courier New',monospace">  estimatedMins: Int?</text>
  <rect x="535" y="225" width="210" height="192" rx="12" fill="rgba(0,0,0,0.1)"/>
  <rect x="530" y="220" width="210" height="192" rx="12" fill="white" stroke="#117a6522" stroke-width="1.5"/>
  <rect x="530" y="220" width="210" height="38" rx="12" fill="#117a65"/>
  <rect x="530" y="246" width="210" height="12" fill="#117a65"/>
  <text x="635" y="247" text-anchor="middle" fill="white" font-weight="bold" font-size="13" font-family="Arial,sans-serif">Document</text>
  <line x1="531" y1="258" x2="739" y2="258" stroke="#e9ecef" stroke-width="1"/>
  <rect x="531" y="258" width="208" height="22" fill="#f8f9fa"/>
  <text x="540" y="274" font-size="11" fill="#c0392b" font-weight="bold" font-family="'Courier New',monospace">🔑 id</text>
  <line x1="531" y1="280" x2="739" y2="280" stroke="#e9ecef" stroke-width="0.5"/>
  <text x="540" y="296" font-size="11" fill="#1a5276" font-weight="normal" font-family="'Courier New',monospace">🔗 organizationId</text>
  <line x1="531" y1="302" x2="739" y2="302" stroke="#e9ecef" stroke-width="0.5"/>
  <rect x="531" y="302" width="208" height="22" fill="#f8f9fa"/>
  <text x="540" y="318" font-size="11" fill="#1a5276" font-weight="normal" font-family="'Courier New',monospace">🔗 moduleId?</text>
  <line x1="531" y1="324" x2="739" y2="324" stroke="#e9ecef" stroke-width="0.5"/>
  <text x="540" y="340" font-size="11" fill="#1a5276" font-weight="normal" font-family="'Courier New',monospace">🔗 processId?</text>
  <line x1="531" y1="346" x2="739" y2="346" stroke="#e9ecef" stroke-width="0.5"/>
  <rect x="531" y="346" width="208" height="22" fill="#f8f9fa"/>
  <text x="540" y="362" font-size="11" fill="#495057" font-weight="normal" font-family="'Courier New',monospace">  title</text>
  <line x1="531" y1="368" x2="739" y2="368" stroke="#e9ecef" stroke-width="0.5"/>
  <text x="540" y="384" font-size="11" fill="#495057" font-weight="normal" font-family="'Courier New',monospace">  type: DocumentType</text>
  <line x1="531" y1="390" x2="739" y2="390" stroke="#e9ecef" stroke-width="0.5"/>
  <rect x="531" y="390" width="208" height="22" fill="#f8f9fa"/>
  <text x="540" y="406" font-size="11" fill="#495057" font-weight="normal" font-family="'Courier New',monospace">  status: DocumentStatus</text>
  <rect x="795" y="225" width="210" height="126" rx="12" fill="rgba(0,0,0,0.1)"/>
  <rect x="790" y="220" width="210" height="126" rx="12" fill="white" stroke="#1a527622" stroke-width="1.5"/>
  <rect x="790" y="220" width="210" height="38" rx="12" fill="#1a5276"/>
  <rect x="790" y="246" width="210" height="12" fill="#1a5276"/>
  <text x="895" y="247" text-anchor="middle" fill="white" font-weight="bold" font-size="13" font-family="Arial,sans-serif">Conversation</text>
  <line x1="791" y1="258" x2="999" y2="258" stroke="#e9ecef" stroke-width="1"/>
  <rect x="791" y="258" width="208" height="22" fill="#f8f9fa"/>
  <text x="800" y="274" font-size="11" fill="#c0392b" font-weight="bold" font-family="'Courier New',monospace">🔑 id</text>
  <line x1="791" y1="280" x2="999" y2="280" stroke="#e9ecef" stroke-width="0.5"/>
  <text x="800" y="296" font-size="11" fill="#1a5276" font-weight="normal" font-family="'Courier New',monospace">🔗 organizationId</text>
  <line x1="791" y1="302" x2="999" y2="302" stroke="#e9ecef" stroke-width="0.5"/>
  <rect x="791" y="302" width="208" height="22" fill="#f8f9fa"/>
  <text x="800" y="318" font-size="11" fill="#1a5276" font-weight="normal" font-family="'Courier New',monospace">🔗 userId</text>
  <line x1="791" y1="324" x2="999" y2="324" stroke="#e9ecef" stroke-width="0.5"/>
  <text x="800" y="340" font-size="11" fill="#495057" font-weight="normal" font-family="'Courier New',monospace">  title?</text>
  <rect x="35" y="425" width="210" height="170" rx="12" fill="rgba(0,0,0,0.1)"/>
  <rect x="30" y="420" width="210" height="170" rx="12" fill="white" stroke="#6c348322" stroke-width="1.5"/>
  <rect x="30" y="420" width="210" height="38" rx="12" fill="#6c3483"/>
  <rect x="30" y="446" width="210" height="12" fill="#6c3483"/>
  <text x="135" y="447" text-anchor="middle" fill="white" font-weight="bold" font-size="13" font-family="Arial,sans-serif">UserProgress</text>
  <line x1="31" y1="458" x2="239" y2="458" stroke="#e9ecef" stroke-width="1"/>
  <rect x="31" y="458" width="208" height="22" fill="#f8f9fa"/>
  <text x="40" y="474" font-size="11" fill="#c0392b" font-weight="bold" font-family="'Courier New',monospace">🔑 id</text>
  <line x1="31" y1="480" x2="239" y2="480" stroke="#e9ecef" stroke-width="0.5"/>
  <text x="40" y="496" font-size="11" fill="#1a5276" font-weight="normal" font-family="'Courier New',monospace">🔗 userId</text>
  <line x1="31" y1="502" x2="239" y2="502" stroke="#e9ecef" stroke-width="0.5"/>
  <rect x="31" y="502" width="208" height="22" fill="#f8f9fa"/>
  <text x="40" y="518" font-size="11" fill="#1a5276" font-weight="normal" font-family="'Courier New',monospace">🔗 moduleId</text>
  <line x1="31" y1="524" x2="239" y2="524" stroke="#e9ecef" stroke-width="0.5"/>
  <text x="40" y="540" font-size="11" fill="#495057" font-weight="normal" font-family="'Courier New',monospace">  percentComplete: Float</text>
  <line x1="31" y1="546" x2="239" y2="546" stroke="#e9ecef" stroke-width="0.5"/>
  <rect x="31" y="546" width="208" height="22" fill="#f8f9fa"/>
  <text x="40" y="562" font-size="11" fill="#495057" font-weight="normal" font-family="'Courier New',monospace">  score: Float?</text>
  <line x1="31" y1="568" x2="239" y2="568" stroke="#e9ecef" stroke-width="0.5"/>
  <text x="40" y="584" font-size="11" fill="#495057" font-weight="normal" font-family="'Courier New',monospace">  completedAt?</text>
  <rect x="285" y="425" width="210" height="148" rx="12" fill="rgba(0,0,0,0.1)"/>
  <rect x="280" y="420" width="210" height="148" rx="12" fill="white" stroke="#1e844922" stroke-width="1.5"/>
  <rect x="280" y="420" width="210" height="38" rx="12" fill="#1e8449"/>
  <rect x="280" y="446" width="210" height="12" fill="#1e8449"/>
  <text x="385" y="447" text-anchor="middle" fill="white" font-weight="bold" font-size="13" font-family="Arial,sans-serif">Process</text>
  <line x1="281" y1="458" x2="489" y2="458" stroke="#e9ecef" stroke-width="1"/>
  <rect x="281" y="458" width="208" height="22" fill="#f8f9fa"/>
  <text x="290" y="474" font-size="11" fill="#c0392b" font-weight="bold" font-family="'Courier New',monospace">🔑 id</text>
  <line x1="281" y1="480" x2="489" y2="480" stroke="#e9ecef" stroke-width="0.5"/>
  <text x="290" y="496" font-size="11" fill="#1a5276" font-weight="normal" font-family="'Courier New',monospace">🔗 organizationId</text>
  <line x1="281" y1="502" x2="489" y2="502" stroke="#e9ecef" stroke-width="0.5"/>
  <rect x="281" y="502" width="208" height="22" fill="#f8f9fa"/>
  <text x="290" y="518" font-size="11" fill="#1a5276" font-weight="normal" font-family="'Courier New',monospace">🔗 moduleId?</text>
  <line x1="281" y1="524" x2="489" y2="524" stroke="#e9ecef" stroke-width="0.5"/>
  <text x="290" y="540" font-size="11" fill="#495057" font-weight="normal" font-family="'Courier New',monospace">  title</text>
  <line x1="281" y1="546" x2="489" y2="546" stroke="#e9ecef" stroke-width="0.5"/>
  <rect x="281" y="546" width="208" height="22" fill="#f8f9fa"/>
  <text x="290" y="562" font-size="11" fill="#495057" font-weight="normal" font-family="'Courier New',monospace">  orderIndex: Int</text>
  <rect x="535" y="425" width="210" height="148" rx="12" fill="rgba(0,0,0,0.1)"/>
  <rect x="530" y="420" width="210" height="148" rx="12" fill="white" stroke="#117a6522" stroke-width="1.5"/>
  <rect x="530" y="420" width="210" height="38" rx="12" fill="#117a65"/>
  <rect x="530" y="446" width="210" height="12" fill="#117a65"/>
  <text x="635" y="447" text-anchor="middle" fill="white" font-weight="bold" font-size="13" font-family="Arial,sans-serif">DocumentChunk</text>
  <line x1="531" y1="458" x2="739" y2="458" stroke="#e9ecef" stroke-width="1"/>
  <rect x="531" y="458" width="208" height="22" fill="#f8f9fa"/>
  <text x="540" y="474" font-size="11" fill="#c0392b" font-weight="bold" font-family="'Courier New',monospace">🔑 id</text>
  <line x1="531" y1="480" x2="739" y2="480" stroke="#e9ecef" stroke-width="0.5"/>
  <text x="540" y="496" font-size="11" fill="#1a5276" font-weight="normal" font-family="'Courier New',monospace">🔗 documentId</text>
  <line x1="531" y1="502" x2="739" y2="502" stroke="#e9ecef" stroke-width="0.5"/>
  <rect x="531" y="502" width="208" height="22" fill="#f8f9fa"/>
  <text x="540" y="518" font-size="11" fill="#495057" font-weight="normal" font-family="'Courier New',monospace">  content: Text</text>
  <line x1="531" y1="524" x2="739" y2="524" stroke="#e9ecef" stroke-width="0.5"/>
  <text x="540" y="540" font-size="11" fill="#495057" font-weight="normal" font-family="'Courier New',monospace">  chunkIndex: Int</text>
  <line x1="531" y1="546" x2="739" y2="546" stroke="#e9ecef" stroke-width="0.5"/>
  <rect x="531" y="546" width="208" height="22" fill="#f8f9fa"/>
  <text x="540" y="562" font-size="11" fill="#495057" font-weight="normal" font-family="'Courier New',monospace">  embedding: vector(768)</text>
  <rect x="795" y="385" width="210" height="126" rx="12" fill="rgba(0,0,0,0.1)"/>
  <rect x="790" y="380" width="210" height="126" rx="12" fill="white" stroke="#1a527622" stroke-width="1.5"/>
  <rect x="790" y="380" width="210" height="38" rx="12" fill="#1a5276"/>
  <rect x="790" y="406" width="210" height="12" fill="#1a5276"/>
  <text x="895" y="407" text-anchor="middle" fill="white" font-weight="bold" font-size="13" font-family="Arial,sans-serif">Message</text>
  <line x1="791" y1="418" x2="999" y2="418" stroke="#e9ecef" stroke-width="1"/>
  <rect x="791" y="418" width="208" height="22" fill="#f8f9fa"/>
  <text x="800" y="434" font-size="11" fill="#c0392b" font-weight="bold" font-family="'Courier New',monospace">🔑 id</text>
  <line x1="791" y1="440" x2="999" y2="440" stroke="#e9ecef" stroke-width="0.5"/>
  <text x="800" y="456" font-size="11" fill="#1a5276" font-weight="normal" font-family="'Courier New',monospace">🔗 conversationId</text>
  <line x1="791" y1="462" x2="999" y2="462" stroke="#e9ecef" stroke-width="0.5"/>
  <rect x="791" y="462" width="208" height="22" fill="#f8f9fa"/>
  <text x="800" y="478" font-size="11" fill="#495057" font-weight="normal" font-family="'Courier New',monospace">  role: String</text>
  <line x1="791" y1="484" x2="999" y2="484" stroke="#e9ecef" stroke-width="0.5"/>
  <text x="800" y="500" font-size="11" fill="#495057" font-weight="normal" font-family="'Courier New',monospace">  content: Text</text>
  <rect x="35" y="625" width="210" height="148" rx="12" fill="rgba(0,0,0,0.1)"/>
  <rect x="30" y="620" width="210" height="148" rx="12" fill="white" stroke="#6c348322" stroke-width="1.5"/>
  <rect x="30" y="620" width="210" height="38" rx="12" fill="#6c3483"/>
  <rect x="30" y="646" width="210" height="12" fill="#6c3483"/>
  <text x="135" y="647" text-anchor="middle" fill="white" font-weight="bold" font-size="13" font-family="Arial,sans-serif">ActivityAttempt</text>
  <line x1="31" y1="658" x2="239" y2="658" stroke="#e9ecef" stroke-width="1"/>
  <rect x="31" y="658" width="208" height="22" fill="#f8f9fa"/>
  <text x="40" y="674" font-size="11" fill="#c0392b" font-weight="bold" font-family="'Courier New',monospace">🔑 id</text>
  <line x1="31" y1="680" x2="239" y2="680" stroke="#e9ecef" stroke-width="0.5"/>
  <text x="40" y="696" font-size="11" fill="#1a5276" font-weight="normal" font-family="'Courier New',monospace">🔗 userId</text>
  <line x1="31" y1="702" x2="239" y2="702" stroke="#e9ecef" stroke-width="0.5"/>
  <rect x="31" y="702" width="208" height="22" fill="#f8f9fa"/>
  <text x="40" y="718" font-size="11" fill="#1a5276" font-weight="normal" font-family="'Courier New',monospace">🔗 activityId</text>
  <line x1="31" y1="724" x2="239" y2="724" stroke="#e9ecef" stroke-width="0.5"/>
  <text x="40" y="740" font-size="11" fill="#495057" font-weight="normal" font-family="'Courier New',monospace">  score: Float?</text>
  <line x1="31" y1="746" x2="239" y2="746" stroke="#e9ecef" stroke-width="0.5"/>
  <rect x="31" y="746" width="208" height="22" fill="#f8f9fa"/>
  <text x="40" y="762" font-size="11" fill="#495057" font-weight="normal" font-family="'Courier New',monospace">  passed: Boolean</text>
  <rect x="285" y="625" width="210" height="170" rx="12" fill="rgba(0,0,0,0.1)"/>
  <rect x="280" y="620" width="210" height="170" rx="12" fill="white" stroke="#1e844922" stroke-width="1.5"/>
  <rect x="280" y="620" width="210" height="38" rx="12" fill="#1e8449"/>
  <rect x="280" y="646" width="210" height="12" fill="#1e8449"/>
  <text x="385" y="647" text-anchor="middle" fill="white" font-weight="bold" font-size="13" font-family="Arial,sans-serif">Activity</text>
  <line x1="281" y1="658" x2="489" y2="658" stroke="#e9ecef" stroke-width="1"/>
  <rect x="281" y="658" width="208" height="22" fill="#f8f9fa"/>
  <text x="290" y="674" font-size="11" fill="#c0392b" font-weight="bold" font-family="'Courier New',monospace">🔑 id</text>
  <line x1="281" y1="680" x2="489" y2="680" stroke="#e9ecef" stroke-width="0.5"/>
  <text x="290" y="696" font-size="11" fill="#1a5276" font-weight="normal" font-family="'Courier New',monospace">🔗 moduleId</text>
  <line x1="281" y1="702" x2="489" y2="702" stroke="#e9ecef" stroke-width="0.5"/>
  <rect x="281" y="702" width="208" height="22" fill="#f8f9fa"/>
  <text x="290" y="718" font-size="11" fill="#495057" font-weight="normal" font-family="'Courier New',monospace">  type: ActivityType</text>
  <line x1="281" y1="724" x2="489" y2="724" stroke="#e9ecef" stroke-width="0.5"/>
  <text x="290" y="740" font-size="11" fill="#495057" font-weight="normal" font-family="'Courier New',monospace">  title</text>
  <line x1="281" y1="746" x2="489" y2="746" stroke="#e9ecef" stroke-width="0.5"/>
  <rect x="281" y="746" width="208" height="22" fill="#f8f9fa"/>
  <text x="290" y="762" font-size="11" fill="#495057" font-weight="normal" font-family="'Courier New',monospace">  difficulty: Int</text>
  <line x1="281" y1="768" x2="489" y2="768" stroke="#e9ecef" stroke-width="0.5"/>
  <text x="290" y="784" font-size="11" fill="#495057" font-weight="normal" font-family="'Courier New',monospace">  points: Int</text>
  <rect x="20" y="828" width="700" height="30" rx="8" fill="rgba(255,255,255,0.07)"/>
  <rect x="28" y="836" width="12" height="12" rx="3" fill="#d35400"/>
  <text x="44" y="848" font-size="10" fill="rgba(255,255,255,0.75)" font-family="Arial,sans-serif">Organization</text>
  <rect x="143" y="836" width="12" height="12" rx="3" fill="#1f618d"/>
  <text x="159" y="848" font-size="10" fill="rgba(255,255,255,0.75)" font-family="Arial,sans-serif">Auth / User</text>
  <rect x="258" y="836" width="12" height="12" rx="3" fill="#1e8449"/>
  <text x="274" y="848" font-size="10" fill="rgba(255,255,255,0.75)" font-family="Arial,sans-serif">Training</text>
  <rect x="373" y="836" width="12" height="12" rx="3" fill="#117a65"/>
  <text x="389" y="848" font-size="10" fill="rgba(255,255,255,0.75)" font-family="Arial,sans-serif">Content/RAG</text>
  <rect x="488" y="836" width="12" height="12" rx="3" fill="#1a5276"/>
  <text x="504" y="848" font-size="10" fill="rgba(255,255,255,0.75)" font-family="Arial,sans-serif">AI / Chat</text>
  <rect x="603" y="836" width="12" height="12" rx="3" fill="#6c3483"/>
  <text x="619" y="848" font-size="10" fill="rgba(255,255,255,0.75)" font-family="Arial,sans-serif">Progress</text>
</svg>